<?xml version="1.0" encoding="utf-8"?>
<!-- Generator: Adobe Illustrator 26.0.1, SVG Export Plug-In . SVG Version: 6.00 Build 0)  -->
<svg version="1.1" id="Layer_1" xmlns="http://www.w3.org/2000/svg" xmlns:xlink="http://www.w3.org/1999/xlink" x="0px" y="0px"
	 viewBox="0 0 128 128" style="enable-background:new 0 0 128 128;" xml:space="preserve">
<style type="text/css">
	.st0{fill:#70150E;}
	.st1{fill:#B71918;}
	.st2{fill:#E5231D;}
</style>
<path class="st0" d="M96.96,56c-1.8,1.81-3.18,3.99-4.04,6.4c-0.86,2.4-1.18,4.97-0.93,7.51l-0.09-0.09c0.25,2.99-0.15,6-1.18,8.82
	c-1.03,2.82-2.66,5.38-4.79,7.5c-2.12,2.12-4.68,3.76-7.5,4.79c-2.82,1.03-5.83,1.43-8.82,1.18l0.09,0.09
	c-3.58-0.33-7.17,0.45-10.29,2.23c-3.12,1.78-5.61,4.49-7.14,7.74s-2.01,6.9-1.39,10.43c0.62,3.54,2.32,6.8,4.86,9.34
	c2.54,2.54,5.8,4.23,9.34,4.85c3.54,0.62,7.18,0.13,10.43-1.4c3.25-1.53,5.95-4.02,7.73-7.14c1.78-3.12,2.56-6.71,2.22-10.29
	l0.09,0.09c-0.25-2.99,0.15-6,1.18-8.82c1.03-2.82,2.66-5.38,4.79-7.5c2.12-2.12,4.68-3.76,7.5-4.79c2.82-1.03,5.83-1.43,8.82-1.18
	l-0.09-0.09c2.92,0.26,5.86-0.22,8.55-1.39c2.69-1.18,5.03-3.01,6.82-5.34c1.79-2.32,2.96-5.06,3.41-7.96
	c0.45-2.9,0.16-5.86-0.84-8.62c-1-2.76-2.69-5.22-4.89-7.15c-2.21-1.93-4.86-3.28-7.73-3.91c-2.86-0.63-5.84-0.53-8.66,0.29
	c-2.82,0.83-5.38,2.35-7.45,4.43H96.96z"/>
<path class="st1" d="M61.94,81l-0.09-0.09c2.54,0.26,5.11-0.06,7.51-0.91c2.41-0.86,4.59-2.24,6.4-4.04
	c1.81-1.81,3.19-3.99,4.05-6.4c0.86-2.41,1.17-4.97,0.92-7.51l0.09,0.09c-0.25-2.99,0.15-6,1.18-8.82c1.03-2.82,2.66-5.38,4.79-7.5
	c2.12-2.12,4.68-3.76,7.5-4.79c2.82-1.03,5.83-1.43,8.82-1.18l-0.09-0.09c3.58,0.34,7.17-0.44,10.29-2.22
	c3.12-1.78,5.61-4.48,7.14-7.73c1.53-3.25,2.02-6.9,1.4-10.43c-0.62-3.54-2.31-6.8-4.85-9.34c-2.54-2.54-5.8-4.24-9.34-4.85
	c-3.54-0.62-7.18-0.13-10.43,1.4c-3.25,1.53-5.95,4.02-7.73,7.14c-1.78,3.12-2.56,6.71-2.22,10.29l-0.09-0.09
	c0.25,2.99-0.15,6-1.18,8.82c-1.03,2.82-2.66,5.38-4.79,7.5c-2.12,2.12-4.68,3.76-7.5,4.79c-2.82,1.03-5.83,1.43-8.82,1.18
	l0.09,0.09c-2.54-0.26-5.11,0.06-7.51,0.91c-2.41,0.86-4.59,2.24-6.4,4.04c-1.81,1.81-3.19,3.99-4.05,6.4
	c-0.86,2.41-1.17,4.97-0.92,7.51l-0.09-0.09c0.25,2.99-0.15,6-1.18,8.82c-1.03,2.82-2.66,5.38-4.79,7.5
	c-2.12,2.12-4.68,3.75-7.5,4.79c-2.82,1.03-5.83,1.43-8.82,1.18l0.09,0.09c-3.58-0.34-7.17,0.44-10.29,2.22
	c-3.12,1.78-5.61,4.48-7.14,7.73c-1.53,3.25-2.02,6.9-1.4,10.43c0.62,3.54,2.31,6.8,4.85,9.34c2.54,2.54,5.8,4.24,9.34,4.85
	c3.54,0.62,7.18,0.13,10.43-1.4c3.25-1.53,5.95-4.02,7.73-7.14c1.78-3.12,2.56-6.71,2.22-10.29l0.09,0.09
	c-0.25-2.99,0.15-6,1.18-8.82c1.03-2.82,2.66-5.38,4.79-7.5c2.12-2.12,4.68-3.76,7.5-4.79C55.94,81.15,58.95,80.75,61.94,81
	L61.94,81z"/>
<path class="st2" d="M30.13,71.47c1.8-1.81,3.18-3.99,4.03-6.4s1.17-4.97,0.93-7.51l0.09,0.09c-0.25-2.99,0.15-6,1.18-8.82
	c1.03-2.82,2.67-5.38,4.79-7.5c2.12-2.12,4.68-3.76,7.5-4.78c2.82-1.03,5.83-1.43,8.82-1.18l-0.09-0.09
	c3.58,0.34,7.17-0.44,10.29-2.22c3.12-1.78,5.61-4.48,7.14-7.73c1.53-3.25,2.02-6.89,1.4-10.43c-0.62-3.54-2.31-6.8-4.85-9.34
	s-5.8-4.23-9.34-4.85c-3.54-0.62-7.18-0.13-10.43,1.4c-3.25,1.53-5.95,4.02-7.73,7.14c-1.78,3.12-2.56,6.71-2.22,10.29l-0.09-0.09
	c0.25,2.99-0.15,6-1.18,8.82c-1.03,2.82-2.66,5.38-4.79,7.5c-2.12,2.12-4.68,3.76-7.5,4.79c-2.82,1.03-5.83,1.43-8.82,1.18
	l0.09,0.09c-2.92-0.26-5.86,0.22-8.55,1.39c-2.69,1.18-5.03,3.01-6.82,5.34c-1.79,2.32-2.96,5.06-3.41,7.96
	c-0.45,2.9-0.16,5.86,0.85,8.62c1,2.76,2.69,5.22,4.89,7.15c2.21,1.93,4.86,3.28,7.73,3.91c2.86,0.63,5.84,0.53,8.66-0.29
	C25.5,75.07,28.07,73.55,30.13,71.47L30.13,71.47z"/>
</svg>
