<?xml version="1.0" encoding="utf-8"?>
<!-- Generator: Adobe Illustrator 26.0.1, SVG Export Plug-In . SVG Version: 6.00 Build 0)  -->
<svg version="1.1" id="Layer_1" xmlns="http://www.w3.org/2000/svg" xmlns:xlink="http://www.w3.org/1999/xlink" x="0px" y="0px"
	 viewBox="0 0 832 1024" style="enable-background:new 0 0 832 1024;" xml:space="preserve">
<style type="text/css">
	.st0{fill:#FFFFFF;}
</style>
<path class="st0" d="M416,464.5c-61.6,0-111.5,49.9-111.5,111.5S354.4,687.5,416,687.5S527.5,637.6,527.5,576c0-8.5-1.1-16.8-3-24.7
	c81.6-94.9,208-243,275.5-327.3c23.1-28.9-2.3-56.2-32-32c-85.2,69.4-232.3,194.7-326.9,275.6C433,465.7,424.6,464.5,416,464.5z
	 M447.9,255.9c0-17.7-14.3-32-32-32s-32,14.3-32,32s14.3,32,32,32S447.9,273.5,447.9,255.9z M639.9,511.9c0,17.7,14.4,32,32,32
	s32-14.3,32-32s-14.4-32-32-32S639.9,494.2,639.9,511.9z M287.9,255.9c-17.7,0-32,14.3-32,32s14.3,32,32,32s32-14.3,32-32
	S305.5,255.9,287.9,255.9z M223.9,383.9c0-17.7-14.3-32-32-32s-32,14.3-32,32s14.3,32,32,32S223.9,401.5,223.9,383.9z M127.9,511.9
	c0,17.7,14.3,32,32,32s32-14.3,32-32s-14.3-32-32-32S127.9,494.2,127.9,511.9z M575.9,287.9c0-17.7-14.4-32-32-32s-32,14.3-32,32
	s14.4,32,32,32S575.9,305.5,575.9,287.9z M792.9,336.7l-68.8,89.9c7.5,27.2,11.9,55.7,11.9,85.4c0,176.8-143.3,320-320,320
	S96,688.8,96,512c0-176.7,143.3-320,320-320c65.9,0,127,20,177.9,54.1l79.2-60.6C602.4,129.6,513.2,96,416,96
	C186.2,96,0,282.2,0,512s186.2,416,416,416s416-186.2,416-416C832,449.3,817.8,390,792.9,336.7z"/>
</svg>
